<?xml version="1.0" standalone="no"?>
<!DOCTYPE svg PUBLIC "-//W3C//DTD SVG 20010904//EN"
 "http://www.w3.org/TR/2001/REC-SVG-20010904/DTD/svg10.dtd">
<svg version="1.0" xmlns="http://www.w3.org/2000/svg"
 width="310.000000pt" height="310.000000pt" viewBox="0 0 310.000000 310.000000"
 preserveAspectRatio="xMidYMid meet">
<metadata>
Created by potrace 1.11, written by Peter Selinger 2001-2013
</metadata>
<g transform="translate(0.000000,310.000000) scale(0.100000,-0.100000)"
fill="#000000" stroke="none">
<path d="M1713 2953 c-15 -16 -37 -46 -47 -68 -11 -22 -25 -52 -33 -67 -7 -14
-13 -33 -13 -41 0 -8 -7 -20 -15 -27 -8 -7 -13 -16 -10 -20 3 -5 1 -11 -5 -15
-5 -3 -10 -15 -10 -25 0 -15 -6 -18 -28 -15 -27 3 -28 2 -29 -44 0 -28 -8 -59
-18 -75 -10 -14 -13 -26 -7 -26 6 0 12 5 14 11 2 6 11 2 21 -8 15 -17 15 -21
1 -41 -17 -24 -44 -30 -44 -9 0 7 5 18 12 25 9 9 7 12 -9 12 -16 0 -21 -5 -18
-19 5 -27 -32 -34 -75 -13 -33 16 -35 20 -35 68 0 37 -4 50 -12 47 -7 -3 -10
-9 -7 -14 3 -5 -1 -9 -8 -9 -8 0 -9 -3 -3 -8 6 -4 12 -18 13 -31 3 -19 0 -22
-13 -17 -9 3 -19 6 -21 6 -2 0 -5 15 -5 33 -1 17 -3 24 -6 15 -6 -25 -23 -22
-23 3 0 13 -8 23 -21 26 -16 4 -19 11 -15 29 6 23 6 23 -20 -3 -18 -18 -24
-33 -21 -49 6 -32 -9 -31 -17 1 -4 14 -11 25 -16 25 -14 0 -12 -10 4 -42 8
-16 10 -28 5 -28 -6 0 -17 16 -25 35 -17 42 -39 37 -30 -6 8 -39 -12 -38 -46
3 l-27 33 -2 -27 c-1 -16 -2 -38 -3 -50 -1 -13 5 -32 13 -42 15 -18 15 -18 -6
-7 -31 16 -49 15 -34 -3 9 -11 6 -12 -14 -8 -17 3 -24 9 -21 19 3 8 -2 16 -12
19 -9 3 -25 10 -34 15 -10 5 -47 9 -83 9 l-64 0 5 33 c8 43 52 107 91 129 37
22 57 27 143 37 39 4 86 18 118 34 28 15 52 28 52 30 0 1 -40 3 -88 5 -54 2
-100 9 -122 19 -32 15 -36 15 -65 -2 -69 -42 -101 -55 -131 -55 -19 0 -54 -13
-84 -32 -54 -34 -111 -46 -217 -47 -34 -1 -64 -5 -67 -10 -11 -18 6 -41 30
-41 15 0 24 -6 24 -15 0 -8 9 -15 20 -15 14 0 20 -7 20 -23 0 -24 33 -47 65
-47 8 0 15 -4 15 -10 0 -5 9 -10 19 -10 11 0 35 -9 53 -19 18 -10 49 -22 68
-26 19 -4 44 -14 55 -21 19 -14 19 -14 0 -16 -11 0 -30 0 -42 1 -13 1 -23 -2
-23 -7 0 -5 21 -8 47 -8 39 1 48 -2 51 -17 3 -16 1 -17 -16 -8 -12 6 -27 11
-34 11 -7 -1 5 -10 26 -21 31 -17 43 -19 63 -10 17 8 30 8 46 0 21 -10 21 -10
3 5 -19 15 -19 16 7 16 37 0 96 -30 103 -52 3 -10 9 -16 13 -14 4 3 7 -14 7
-37 -1 -35 2 -41 17 -39 9 2 17 -2 17 -8 0 -7 6 -5 15 4 12 12 13 20 3 40 -6
14 -15 26 -19 26 -7 0 -2 50 6 58 2 2 11 -11 20 -29 20 -38 24 -124 7 -141 -8
-8 -10 -5 -6 13 5 21 4 22 -6 7 -7 -12 -24 -18 -47 -18 -33 0 -35 1 -19 13 16
12 17 15 4 20 -10 3 -19 -3 -27 -19 -6 -13 -15 -24 -20 -24 -6 0 -22 -12 -37
-27 -15 -16 -23 -22 -20 -15 4 6 3 12 -2 12 -6 0 -13 -11 -16 -24 -4 -17 -15
-26 -37 -31 -17 -4 -33 -4 -36 -1 -4 3 2 6 13 7 18 0 18 1 -1 9 -28 12 -37 12
-29 -2 4 -7 3 -8 -4 -4 -20 12 -14 25 21 46 20 13 26 20 15 20 -9 0 -20 -4
-23 -10 -3 -5 -14 -10 -23 -10 -10 0 -13 3 -7 8 6 4 12 18 14 32 1 14 8 34 13
44 10 18 12 16 29 -19 10 -21 21 -40 23 -42 9 -10 56 11 56 24 0 9 6 13 15 9
12 -4 15 3 16 32 1 20 3 29 6 20 8 -33 38 -16 49 26 5 21 4 27 -4 22 -7 -4
-10 -2 -6 7 4 11 -12 9 -73 -8 -43 -13 -98 -28 -121 -35 -41 -11 -43 -12 -28
-29 21 -24 20 -37 -2 -20 -15 12 -16 12 -5 -1 6 -9 12 -35 11 -58 0 -34 -8
-52 -38 -89 -40 -48 -51 -89 -19 -72 10 5 27 9 39 9 30 0 140 -33 140 -42 0
-12 -55 -10 -87 3 -38 15 -92 14 -106 -1 -9 -10 -8 -11 8 -6 23 9 146 -14 139
-25 -2 -5 -11 -6 -19 -2 -9 3 -15 -1 -15 -9 0 -19 -126 -148 -145 -148 -9 0
-18 6 -21 14 -3 8 -11 13 -19 10 -9 -4 -11 2 -7 21 3 20 7 23 13 13 6 -9 9 -5
9 12 0 15 5 31 11 37 7 7 8 17 1 28 -6 12 -11 14 -16 6 -4 -6 -5 -11 -1 -11 3
0 1 -9 -5 -21 -11 -20 -46 -38 -100 -54 -24 -6 -24 -6 5 19 17 14 37 26 45 26
8 0 24 7 34 15 23 18 14 20 -17 4 -12 -6 -4 4 18 24 29 25 43 32 53 25 8 -7
12 -7 12 0 0 6 3 18 7 28 3 10 2 15 -3 12 -5 -4 -9 5 -9 18 0 13 4 24 9 24 4
0 6 6 3 14 -6 15 26 56 58 73 17 10 17 12 1 34 -9 13 -16 42 -16 65 l0 41 -47
-14 c-157 -47 -215 -69 -273 -106 -87 -54 -114 -77 -167 -145 -101 -128 -144
-288 -114 -424 6 -24 13 -58 16 -77 3 -18 12 -49 20 -67 8 -19 12 -34 9 -34
-3 0 5 -17 17 -37 73 -121 115 -176 183 -239 42 -39 76 -76 76 -82 0 -5 -21
-22 -48 -37 -56 -33 -118 -90 -138 -127 -17 -32 -18 -68 -3 -68 7 0 9 -10 5
-25 -9 -36 1 -31 23 12 27 52 75 87 141 103 80 20 129 46 183 99 79 75 94 127
62 204 -18 44 -19 108 -2 129 21 26 100 65 139 67 20 1 50 -5 67 -14 18 -9 36
-13 41 -10 5 3 11 1 15 -5 8 -13 -34 -50 -107 -96 -32 -19 -58 -37 -58 -39 0
-10 62 3 77 18 27 24 40 22 18 -3 -10 -11 -13 -20 -7 -20 7 0 17 9 24 20 7 11
16 20 21 20 4 0 5 -6 0 -12 -4 -7 -8 -17 -9 -23 -1 -5 -5 -22 -9 -37 -5 -21
-3 -27 15 -33 16 -5 19 -10 11 -18 -17 -17 -13 -25 12 -20 12 2 33 -5 47 -16
24 -19 24 -20 6 -40 -11 -12 -14 -21 -8 -21 5 0 8 -9 5 -20 -3 -11 -10 -20
-15 -20 -5 0 -8 -6 -7 -12 4 -31 -2 -59 -11 -53 -5 3 -10 2 -10 -4 0 -5 6 -12
13 -15 6 -3 1 -4 -13 -3 -14 1 -24 8 -22 15 1 6 -3 12 -9 12 -6 0 -8 -7 -5
-16 3 -8 1 -24 -4 -34 -8 -16 -8 -18 5 -14 8 4 15 1 15 -5 0 -6 -8 -11 -17
-12 -15 0 -15 -2 2 -9 17 -6 15 -9 -16 -15 -28 -5 -45 -18 -73 -56 -20 -27
-42 -49 -50 -49 -17 0 -56 -34 -56 -49 0 -7 8 -11 18 -10 34 3 53 -1 47 -11
-4 -6 -3 -10 2 -9 23 4 43 -2 38 -11 -7 -11 -65 -7 -97 5 -35 14 -17 -5 20
-21 61 -26 80 -27 87 -4 10 31 60 51 144 57 42 3 107 14 146 25 81 24 172 20
192 -8 6 -9 16 -13 21 -10 5 3 12 -3 15 -13 3 -12 -1 -22 -9 -25 -22 -8 -16
-25 6 -19 23 6 28 -15 5 -23 -8 -4 -15 -10 -15 -16 0 -5 6 -6 13 -2 9 5 9 4 1
-5 -6 -7 -42 -14 -80 -16 -38 -1 -91 -4 -119 -5 l-50 -3 70 -10 c107 -15 245
-12 279 6 16 9 33 14 38 11 4 -3 18 0 30 6 22 11 22 10 4 -4 -11 -9 -32 -16
-47 -16 -27 0 -53 -20 -27 -20 14 -1 85 -87 106 -129 11 -21 11 -23 0 -9 -7 9
-18 25 -25 35 -10 16 -12 13 -12 -18 -1 -36 19 -66 33 -52 4 4 4 0 1 -9 -4 -9
0 -29 8 -45 15 -28 15 -29 -11 -31 -36 -3 -40 -11 -14 -32 30 -25 28 -36 -3
-16 -31 21 -34 20 -28 -4 12 -46 113 -75 189 -54 19 5 21 10 14 42 -5 21 -11
67 -15 105 -4 44 -10 65 -17 61 -7 -4 -8 -2 -4 5 10 15 -10 75 -32 94 -10 9
-19 32 -20 50 -2 31 1 35 29 41 17 3 63 4 103 1 43 -2 59 -1 41 3 -29 8 -28 8
17 15 27 4 60 9 75 12 23 4 25 4 8 -4 -18 -9 -18 -10 6 -10 14 -1 34 6 45 14
18 13 18 14 -6 9 -20 -3 -21 -3 -6 4 10 4 34 7 54 5 27 -2 33 0 24 9 -7 7 -12
15 -12 18 0 9 49 5 75 -5 19 -8 20 -8 2 12 -10 12 -55 33 -100 47 -68 21 -191
86 -164 86 4 0 24 -11 45 -24 20 -14 51 -28 67 -31 l30 -7 -30 16 c-30 17 -65
52 -65 66 0 4 10 11 23 15 21 6 21 7 -8 20 -26 12 -27 14 -8 15 12 0 25 -5 28
-11 4 -5 12 -8 18 -6 7 3 23 -5 36 -17 l24 -21 -7 25 c-20 67 -17 80 34 116
27 19 52 44 55 54 5 15 16 18 58 18 29 0 63 6 76 13 20 12 24 12 37 -6 14 -19
14 -19 12 5 -5 43 25 29 54 -25 25 -47 26 -52 11 -74 -10 -15 -13 -36 -10 -57
6 -34 -19 -114 -35 -114 -4 0 1 19 13 42 17 33 19 46 10 60 -6 10 -11 35 -11
55 -1 21 -7 49 -15 63 -17 30 -19 22 -5 -16 12 -32 -8 -183 -22 -161 -4 6 -8
8 -8 3 0 -12 73 -146 78 -142 2 2 -4 18 -13 35 -14 29 -14 34 1 66 9 19 19 35
23 35 4 0 15 -19 26 -43 13 -27 26 -41 36 -39 9 1 19 -4 22 -11 4 -11 16 -12
54 -6 26 4 59 5 72 2 17 -4 22 -2 17 6 -4 6 -3 11 1 11 5 0 18 7 29 16 19 15
19 16 -1 9 -16 -5 -17 -4 -8 6 14 14 75 20 67 7 -3 -4 -22 -17 -42 -28 -20
-10 -31 -19 -24 -20 41 -1 92 55 92 101 0 20 0 20 -22 0 -11 -11 -26 -18 -31
-14 -6 4 -7 1 -3 -6 5 -8 3 -12 -5 -10 -27 3 -38 -1 -57 -21 -13 -15 -36 -22
-72 -25 -58 -5 -80 5 -80 39 1 21 1 21 15 2 13 -17 15 -17 15 -4 0 24 15 30
44 17 29 -14 35 -11 41 20 5 25 -7 27 -25 6 -12 -14 -16 -13 -36 6 -13 12 -20
28 -17 37 4 10 2 13 -5 8 -20 -12 -14 6 11 32 l22 25 -35 -18 -35 -17 20 20
c28 29 73 39 81 18 3 -9 14 -16 23 -17 9 0 11 -3 4 -6 -9 -3 -10 -9 -1 -23 10
-15 15 -16 26 -8 11 10 13 8 10 -8 -1 -10 -7 -22 -13 -26 -6 -5 -3 -8 7 -8 9
0 20 -5 24 -12 5 -7 3 -8 -6 -3 -9 6 -11 4 -5 -5 6 -10 11 -9 22 5 7 11 13 23
13 28 0 5 9 7 21 4 15 -4 19 -2 15 8 -3 8 0 16 7 18 7 2 -1 11 -18 20 -16 8
-45 31 -63 50 -27 28 -41 35 -74 35 -22 1 -43 4 -47 8 -3 3 9 5 26 2 25 -3 30
-2 22 8 -5 6 -10 63 -11 125 0 76 -5 126 -15 149 -8 19 -16 42 -18 50 -2 8 -4
15 -5 15 -7 0 -7 42 1 56 5 10 5 20 0 23 -5 3 -11 21 -13 40 -4 32 -3 33 16
20 32 -22 49 -18 35 7 -12 23 0 38 31 39 19 1 -29 29 -50 30 -9 0 -39 15 -68
34 -28 19 -52 32 -52 28 -1 -4 -8 2 -18 13 -13 16 -32 21 -83 23 -78 4 -131
-17 -174 -70 -15 -18 -22 -24 -17 -13 36 71 150 116 231 90 12 -4 21 -2 21 4
0 6 -10 13 -22 15 -43 10 -203 26 -250 26 -42 0 -48 -3 -48 -21 0 -13 -8 -23
-21 -26 -16 -4 -17 -8 -7 -14 7 -5 9 -9 3 -9 -5 0 -16 4 -24 9 -11 7 -10 11 7
20 11 6 24 20 27 31 5 17 15 20 63 20 145 0 317 -36 362 -74 8 -7 36 -18 62
-25 42 -10 53 -9 93 10 50 23 52 30 30 82 -8 20 -15 49 -15 64 0 32 -53 103
-76 103 -8 0 -14 5 -14 11 0 8 -6 7 -16 -2 -14 -11 -19 -10 -35 10 -17 21 -24
20 -20 -1 2 -13 -3 -9 -23 14 -15 18 -16 20 -2 15 9 -4 16 -2 16 3 0 5 -9 12
-21 15 -11 4 -18 12 -16 18 2 6 -7 22 -19 36 -18 19 -28 23 -55 17 -24 -5 -30
-3 -22 5 6 6 30 13 54 15 30 3 38 2 24 -4 -18 -8 -17 -11 15 -27 36 -18 64
-42 71 -62 2 -6 12 -7 24 -2 13 5 15 8 5 9 -8 0 -26 16 -40 34 -14 19 -28 32
-31 30 -3 -2 -4 8 -1 23 3 18 -1 30 -14 40 -18 14 -18 15 5 32 16 12 22 24 18
35 -4 11 -1 16 10 16 16 0 16 1 1 16 -13 13 -21 14 -55 4 -29 -9 -53 -9 -86
-2 -26 5 -44 6 -41 1 3 -5 -1 -10 -8 -10 -43 -5 -67 -4 -66 1 2 19 -3 30 -12
25 -5 -3 -10 -1 -10 5 0 7 -7 10 -17 6 -10 -3 -6 4 10 17 30 25 29 64 -2 52
-9 -3 4 12 29 35 25 22 37 37 28 34 -10 -3 -18 -9 -18 -13 0 -15 -41 -31 -58
-22 -14 8 -17 4 -18 -23 0 -29 2 -32 23 -28 37 7 26 -14 -22 -42 -31 -19 -52
-25 -70 -20 -35 9 -25 30 13 27 17 -2 33 1 36 6 7 10 -52 24 -66 15 -9 -6 -27
12 -28 27 0 4 16 3 35 -1 41 -9 68 12 58 48 -3 12 1 30 8 40 12 14 11 14 -8
-1 -12 -11 -27 -16 -32 -12 -18 11 -12 -7 7 -21 16 -13 16 -13 -3 -15 -16 -1
-16 -2 5 -8 24 -7 24 -8 -6 -12 -26 -4 -31 -2 -26 10 5 14 3 14 -11 2 -15 -12
-17 -12 -11 3 4 11 1 16 -14 16 -13 0 -24 10 -31 30 -5 17 -15 30 -22 30 -8 0
-8 -4 1 -15 7 -8 8 -15 2 -15 -5 0 -15 7 -22 15 -7 8 -9 15 -4 15 4 0 0 6 -9
13 -10 6 -19 30 -21 52 -3 22 -9 52 -15 67 -5 14 -7 29 -4 32 4 3 2 6 -4 6
-11 0 0 80 13 102 4 6 2 8 -3 5 -6 -4 -13 6 -15 24 -4 27 -2 30 16 25 12 -3
29 -6 39 -6 13 0 16 -6 13 -25 -3 -15 -1 -23 5 -20 5 4 7 10 4 15 -9 15 12 21
79 22 71 1 77 12 16 28 -44 12 -54 30 -16 30 14 0 27 4 30 9 3 5 27 7 53 4
l48 -5 -29 16 c-19 11 -54 16 -106 16 l-78 0 -46 46 c-25 25 -46 52 -46 59 0
8 -13 28 -29 44 -21 21 -26 32 -18 40 25 25 -13 9 -40 -16z m10 -185 c12 -10
17 -18 10 -18 -6 0 -15 5 -19 11 -4 6 -21 8 -43 5 -30 -5 -33 -4 -14 5 12 6
24 21 28 33 7 20 7 20 12 1 3 -11 15 -28 26 -37z m-17 -23 c3 -8 1 -28 -4 -44
-12 -35 0 -51 38 -51 33 0 71 -11 66 -19 -9 -15 -16 -161 -7 -161 5 0 7 10 4
23 -4 21 -4 22 11 3 20 -24 20 -40 2 -55 -26 -21 -39 22 -32 101 6 60 5 69
-11 74 -10 3 -28 11 -40 17 -13 6 -26 7 -30 4 -3 -4 2 -7 13 -7 15 0 16 -2 4
-9 -8 -6 -17 -8 -21 -5 -4 2 -9 -3 -12 -11 -5 -11 -1 -12 19 -5 41 16 73 13
70 -7 -2 -10 -11 -19 -22 -21 -16 -3 -17 -1 -4 7 13 9 13 11 -1 11 -9 0 -30
-6 -47 -13 -22 -9 -28 -17 -23 -26 7 -11 16 -11 45 -1 45 15 50 11 42 -32 -9
-49 -22 -66 -38 -50 -6 6 -21 12 -32 13 -12 0 -15 3 -8 6 6 2 12 10 12 16 0 8
-4 7 -12 -1 -16 -16 -23 -15 -44 6 -17 16 -18 16 -11 0 4 -11 2 -18 -6 -18 -7
0 -22 -3 -34 -6 -21 -6 -23 -3 -23 40 0 49 4 53 34 31 38 -29 80 -6 44 22 -19
15 -71 26 -63 13 3 -5 1 -10 -4 -10 -16 0 -13 20 4 26 8 3 29 1 47 -5 l33 -11
-24 19 c-14 11 -21 23 -16 30 4 7 -11 3 -33 -8 -35 -18 -41 -26 -45 -58 -2
-21 -4 -11 -3 23 1 64 1 64 56 65 34 1 63 18 56 34 -7 18 16 65 32 65 7 0 15
-7 18 -15z m-876 -40 c18 -21 5 -48 -20 -40 -18 6 -19 4 -10 -19 5 -14 6 -26
1 -26 -5 0 -11 -9 -14 -20 -6 -22 -23 -25 -60 -11 -23 9 -24 12 -16 57 9 45
24 68 40 58 4 -2 10 0 14 6 9 15 51 12 65 -5z m785 -25 c3 -5 1 -10 -4 -10 -6
0 -11 5 -11 10 0 6 2 10 4 10 3 0 8 -4 11 -10z m160 0 c3 -6 -1 -7 -9 -4 -18
7 -21 14 -7 14 6 0 13 -4 16 -10z m30 -20 c3 -5 1 -10 -4 -10 -6 0 -11 5 -11
10 0 6 2 10 4 10 3 0 8 -4 11 -10z m-918 -176 c9 -24 -14 -64 -37 -64 -25 0
-25 12 -3 48 13 20 14 24 3 16 -12 -9 -18 -9 -28 2 -11 12 -7 14 23 14 23 0
38 -5 42 -16z m83 -11 c0 -12 -14 -28 -25 -30 -5 -1 -19 -5 -30 -9 -17 -7 -18
-6 -7 8 7 9 9 18 5 20 -4 3 -3 3 4 2 7 -2 15 1 18 6 7 12 35 13 35 3z m145 -3
c3 -5 1 -10 -4 -10 -6 0 -11 5 -11 10 0 6 2 10 4 10 3 0 8 -4 11 -10z m560 0
c4 -6 -5 -10 -20 -10 -15 0 -24 4 -20 10 3 6 12 10 20 10 8 0 17 -4 20 -10z
m-216 -11 c-8 -5 -5 -11 10 -18 12 -7 18 -17 15 -23 -5 -8 -13 -5 -23 9 -9 10
-24 24 -34 30 -16 8 -14 10 13 10 17 0 26 -4 19 -8z m157 1 c12 -12 66 -16 81
-7 6 4 18 4 27 1 14 -5 12 -10 -10 -31 -25 -23 -51 -26 -47 -5 1 5 -10 12 -25
15 -25 5 -25 4 -7 -9 18 -14 18 -14 -3 -14 -14 0 -27 11 -37 30 -12 24 -13 30
-2 30 7 0 17 -4 23 -10z m-186 -31 c0 -6 -4 -7 -10 -4 -5 3 -10 11 -10 16 0 6
5 7 10 4 6 -3 10 -11 10 -16z m100 11 c0 -5 -5 -10 -11 -10 -5 0 -7 5 -4 10 3
6 8 10 11 10 2 0 4 -4 4 -10z m10 -25 c-7 -8 -20 -15 -29 -15 -13 1 -13 3 3
15 26 19 42 19 26 0z m-605 -5 c-3 -5 -11 -10 -16 -10 -6 0 -7 5 -4 10 3 6 11
10 16 10 6 0 7 -4 4 -10z m100 -2 c24 -11 34 -28 16 -28 -11 0 -59 39 -49 40
4 0 19 -5 33 -12z m775 -3 c7 -9 8 -15 2 -15 -5 0 -12 7 -16 15 -3 8 -4 15 -2
15 2 0 9 -7 16 -15z m-940 -20 c-7 -8 -17 -15 -23 -15 -6 0 -2 7 9 15 25 19
30 19 14 0z m700 4 c12 -8 9 -9 -10 -5 -14 3 -19 3 -12 0 20 -9 14 -27 -8 -21
-11 3 -20 1 -20 -3 0 -5 10 -10 23 -12 12 -2 21 -9 20 -15 -2 -7 3 -10 11 -7
10 4 12 -2 9 -20 -3 -13 -12 -26 -21 -28 -23 -6 -52 2 -52 13 0 5 8 10 18 10
16 1 16 2 0 6 -10 2 -18 8 -18 13 0 5 -6 10 -12 13 -7 2 1 2 17 1 l30 -4 -27
11 c-27 10 -38 29 -17 29 5 0 8 4 4 9 -3 5 5 12 17 14 13 2 25 5 28 5 3 1 12
-3 20 -9z m-105 -9 c3 -5 1 -10 -5 -10 -6 0 -8 -5 -4 -11 5 -8 1 -8 -14 0 -32
17 -36 31 -8 31 14 0 28 -4 31 -10z m358 -12 c-13 -6 -23 -15 -23 -20 0 -13
18 -10 23 5 2 6 7 10 10 7 3 -3 -1 -13 -8 -24 -13 -17 -15 -17 -30 -2 -13 13
-14 18 -3 30 7 9 22 15 33 15 19 0 18 -1 -2 -11z m-238 -8 c3 -5 1 -10 -4 -10
-6 0 -11 5 -11 10 0 6 2 10 4 10 3 0 8 -4 11 -10z m-440 -10 c8 -13 -5 -13
-25 0 -13 8 -13 10 2 10 9 0 20 -4 23 -10z m527 -19 c12 -11 14 -17 6 -22 -6
-4 -19 3 -30 16 -31 40 -19 43 24 6z m198 12 c0 -13 -33 -43 -48 -43 -12 0
-10 6 8 25 23 24 40 32 40 18z m9 -30 c-12 -15 -12 -16 5 -10 18 7 46 -7 46
-24 0 -5 -12 -16 -26 -25 -22 -15 -27 -15 -36 -3 -7 11 -11 11 -15 2 -2 -7 -9
-13 -15 -13 -6 0 -4 8 5 18 21 23 22 39 2 22 -29 -24 -27 -1 1 24 33 29 53 34
33 9z m-283 -90 c3 -16 7 -34 10 -40 2 -7 -1 -13 -5 -13 -8 0 -31 53 -31 71 0
21 20 6 26 -18z m-16 -60 c0 -21 -17 -15 -39 13 -33 42 -27 63 9 29 17 -16 30
-35 30 -42z m53 48 c2 -10 1 -25 -4 -32 -6 -10 -9 -4 -9 19 0 36 5 42 13 13z
m-338 -24 c28 -6 55 -15 60 -19 6 -6 3 -6 -7 -3 -13 5 -18 2 -18 -9 0 -10 5
-13 17 -9 10 4 14 2 9 -5 -4 -7 4 -9 29 -5 24 4 35 2 35 -6 0 -7 -8 -11 -17
-10 -10 2 -44 -7 -76 -19 -32 -12 -66 -22 -77 -22 -11 0 -24 -9 -30 -20 -6
-11 -17 -20 -25 -20 -8 0 -19 -9 -25 -20 -6 -11 -18 -20 -26 -20 -9 0 -12 5
-8 12 4 7 3 8 -5 4 -6 -4 -8 -12 -5 -18 10 -16 -18 -28 -35 -15 -12 10 -13 9
-2 -11 11 -20 10 -26 -6 -39 -16 -13 -16 -14 0 -9 24 8 21 -3 -9 -31 -14 -13
-31 -20 -37 -16 -6 4 -27 7 -45 6 -45 -1 -27 17 22 21 35 3 64 16 36 16 -9 0
-7 5 6 16 17 14 17 15 1 10 -10 -3 -25 -6 -33 -6 -8 0 -13 -5 -11 -11 1 -6 -4
-14 -12 -17 -9 -3 -11 0 -6 8 5 7 -5 5 -23 -5 -17 -10 -28 -23 -25 -28 3 -6 1
-7 -4 -4 -6 4 -31 -2 -54 -13 -45 -20 -89 -26 -89 -12 0 4 34 20 76 36 89 33
146 64 139 76 -3 5 3 14 14 20 11 6 18 16 15 24 -5 14 16 36 38 40 7 1 23 7
35 14 12 7 40 12 63 12 23 0 39 4 36 8 -3 5 25 15 61 22 l67 14 -38 8 c-26 6
-46 4 -66 -7 -36 -18 -40 -19 -40 -1 0 8 15 17 37 21 27 5 33 9 22 16 -11 7
-10 9 6 10 11 0 0 7 -24 15 -24 7 -47 16 -50 20 -6 5 2 4 104 -19z m615 -13
c-5 -19 -11 -38 -14 -41 -8 -8 -8 41 0 61 12 30 22 16 14 -20z m-245 -4 c-10
-11 -20 -18 -23 -15 -3 3 3 14 13 25 10 11 20 18 23 15 3 -3 -3 -14 -13 -25z
m-609 8 c5 -7 3 -8 -5 -3 -8 4 -25 -2 -42 -14 -16 -12 -29 -17 -29 -12 0 12
40 41 57 41 6 0 15 -5 19 -12z m818 -10 c3 -13 6 -27 6 -33 -1 -15 -30 27 -30
42 0 22 17 15 24 -9z m76 13 c0 -5 -9 -19 -20 -32 l-20 -24 11 33 c10 29 29
45 29 23z m-848 -26 c9 -20 9 -28 -2 -38 -10 -10 -12 -8 -6 7 4 12 0 26 -10
37 -11 12 -13 19 -5 19 6 0 17 -11 23 -25z m423 4 c28 -19 28 -20 5 -14 -26 7
-62 35 -45 35 6 0 24 -9 40 -21z m562 2 c9 -11 20 -18 25 -15 4 3 8 1 8 -5 0
-6 6 -8 13 -5 8 3 14 -2 14 -10 0 -13 -4 -13 -26 -1 -40 22 -78 55 -63 55 7 0
20 -9 29 -19z m-1032 -11 c3 -5 2 -10 -4 -10 -5 0 -13 5 -16 10 -3 6 -2 10 4
10 5 0 13 -4 16 -10z m125 0 c0 -5 -12 -10 -27 -9 -25 0 -26 1 -8 9 27 12 35
12 35 0z m435 0 c-3 -5 -1 -10 5 -10 6 0 8 -5 4 -11 -4 -8 -9 -7 -15 2 -12 19
-11 29 2 29 5 0 7 -4 4 -10z m238 -20 c4 -17 3 -19 -9 -9 -8 6 -14 18 -14 26
0 20 16 8 23 -17z m-829 -19 c-9 -10 -26 18 -18 30 5 9 9 8 14 -7 4 -10 6 -21
4 -23z m656 29 c-20 -13 -33 -13 -25 0 3 6 14 10 23 10 15 0 15 -2 2 -10z
m-730 -15 c-15 -18 -6 -30 30 -39 l25 -7 -25 16 c-25 15 -24 15 15 9 33 -5 44
-2 59 15 25 27 33 27 31 -1 -2 -31 -83 -53 -132 -37 -38 12 -39 16 -16 41 20
22 31 24 13 3z m995 -5 c-10 -11 -23 -20 -28 -20 -6 0 -2 9 8 20 10 11 23 20
28 20 6 0 2 -9 -8 -20z m-755 2 c0 -9 -30 -32 -41 -32 -9 0 -9 3 0 14 9 11 9
15 -1 19 -7 2 -1 4 14 3 16 0 28 -2 28 -4z m390 -1 c-19 -10 -80 -22 -80 -15
0 8 44 23 70 23 19 0 21 -2 10 -8z m266 -27 l29 -25 -31 15 c-31 15 -122 16
-189 2 -28 -6 -27 -5 5 8 19 8 49 15 67 15 17 1 34 5 37 10 9 14 51 1 82 -25z
m374 26 c0 -5 -5 -10 -11 -10 -5 0 -7 5 -4 10 3 6 8 10 11 10 2 0 4 -4 4 -10z
m-1106 -30 c-10 -10 -32 -21 -49 -25 l-30 -6 30 14 c17 8 36 21 44 31 8 9 16
14 19 11 3 -3 -3 -14 -14 -25z m521 14 c-27 -7 -54 -13 -60 -13 -17 2 69 27
90 27 11 0 -2 -6 -30 -14z m-747 -24 c53 -12 68 -22 57 -40 -3 -6 -26 -2 -58
10 -52 19 -78 24 -107 21 -15 -2 121 -41 153 -44 10 -1 16 -8 14 -17 -3 -18
-25 -16 -93 12 -43 17 -57 19 -83 10 -31 -11 -45 0 -15 12 8 3 13 10 9 15 -7
13 36 42 55 37 8 -2 39 -10 68 -16z m602 0 l45 -2 -34 -9 c-21 -7 -43 -7 -60
-1 -20 7 -32 6 -46 -4 -17 -13 -13 -14 36 -15 36 -1 44 -4 24 -7 -24 -4 -15
-8 50 -23 100 -22 143 -23 212 -3 30 9 57 14 60 11 3 -3 -13 -19 -36 -35 -22
-16 -38 -31 -36 -34 5 -4 3 -5 -115 -17 -47 -6 -104 -14 -127 -19 -23 -5 -48
-5 -55 -1 -9 6 -4 9 15 9 16 0 26 4 22 10 -4 6 11 10 37 11 119 1 108 14 -13
15 l-134 2 25 -20 c14 -11 61 -55 105 -97 44 -43 87 -81 95 -85 8 -3 4 -4 -10
-1 -14 3 -55 8 -92 11 -64 7 -68 8 -93 46 -14 21 -23 44 -18 51 5 9 3 9 -8 0
-13 -11 -18 -7 -32 22 -15 31 -15 35 1 55 20 24 76 39 149 40 28 0 54 4 57 9
10 15 -52 21 -91 8 -21 -7 -44 -13 -50 -13 -7 -1 -25 -2 -39 -2 -14 -1 -23 -6
-19 -11 8 -13 -27 -31 -62 -32 -25 0 -26 -1 -8 -9 14 -6 15 -9 5 -9 -8 -1 -32
-10 -53 -21 -40 -22 -87 -27 -87 -9 0 6 9 8 23 3 21 -6 21 -6 -3 16 -21 18
-22 21 -5 15 43 -15 58 -15 27 -1 -38 18 -34 39 6 31 27 -5 27 -5 3 5 -34 15
-21 21 20 10 18 -6 50 -10 69 -9 39 1 36 3 -29 19 -72 19 -36 34 72 31 72 -2
89 0 80 10 -7 7 -37 11 -77 10 -40 -1 -66 2 -66 9 0 5 11 10 24 10 46 0 88 12
74 22 -8 5 12 7 52 4 36 -2 85 -5 110 -6z m-800 -14 c-7 -7 -13 -7 -20 0 -6 6
-3 10 10 10 13 0 16 -4 10 -10z m1096 -15 c-4 -5 0 -11 6 -14 7 -2 -5 -3 -27
-2 -51 3 -60 25 -10 25 20 0 34 -4 31 -9z m-116 -12 c-12 -9 -10 -10 9 -5 17
3 21 2 13 -6 -5 -5 -20 -7 -32 -3 -18 6 -20 9 -9 16 20 13 37 11 19 -2z m-645
-6 c-11 -3 -28 -11 -38 -18 -18 -13 -18 -14 2 -34 20 -20 20 -21 2 -21 -10 0
-22 -7 -25 -16 -4 -9 -9 -14 -12 -11 -3 3 -31 -6 -61 -19 -61 -27 -87 -25 -30
2 20 10 34 21 31 26 -3 4 5 7 18 5 14 -1 22 3 21 11 -2 6 7 12 18 12 16 0 19
3 11 13 -5 7 -6 21 -2 33 6 16 17 21 47 21 21 0 29 -2 18 -4z m829 -7 c-3 -8
-16 -17 -29 -20 -13 -3 -31 -9 -42 -13 -16 -6 -16 -5 -4 10 7 9 28 21 45 26
17 5 32 10 33 10 1 1 0 -5 -3 -13z m-819 -16 c3 -5 -1 -10 -9 -10 -9 0 -16 -4
-16 -10 0 -5 -4 -10 -9 -10 -7 0 -8 17 -2 38 2 7 31 1 36 -8z m829 -12 c-28
-33 -36 -38 -69 -38 -29 0 -28 2 20 29 62 36 74 38 49 9z m11 -42 c-15 -20
-23 -36 -17 -36 6 0 17 8 24 18 22 31 42 38 23 8 -10 -15 -27 -31 -37 -37 -11
-6 -17 -13 -14 -16 7 -7 -33 -37 -52 -39 -10 -2 -11 1 -1 12 6 8 18 14 26 14
8 0 11 5 8 10 -3 6 -1 10 4 10 6 0 11 5 11 11 0 6 -9 8 -22 4 -18 -6 -12 3 22
38 52 53 64 54 25 3z m138 23 c17 -19 20 -20 43 -4 25 16 25 16 45 -30 14 -32
26 -45 40 -45 11 0 35 -11 54 -26 18 -14 36 -21 39 -16 3 5 15 12 26 15 11 3
18 2 16 -2 -3 -3 24 -21 59 -39 35 -19 66 -40 69 -48 3 -8 2 -12 -3 -9 -5 3
-13 0 -16 -5 -4 -7 -19 -9 -35 -5 -15 3 -31 2 -34 -3 -6 -9 -50 -3 -131 18
-87 24 -114 29 -207 40 -73 9 -98 16 -100 28 -2 12 -9 10 -34 -11 -44 -37 -77
-48 -131 -40 -37 5 -44 3 -38 -7 5 -9 4 -11 -4 -6 -6 4 -9 12 -6 17 8 12 3 12
-38 -6 -41 -17 -71 -20 -62 -5 3 5 22 12 43 16 20 4 42 10 47 14 6 5 21 10 35
13 23 4 -24 9 -117 12 -18 1 -36 4 -39 8 -4 4 -18 4 -32 0 -18 -4 -23 -3 -17
6 5 10 33 11 109 6 87 -5 109 -4 160 14 66 23 85 21 36 -4 -17 -9 -40 -25 -51
-36 -10 -10 -31 -20 -46 -20 -22 -1 -24 -3 -7 -6 12 -2 38 3 57 11 25 10 37
11 40 3 2 -7 22 0 53 18 27 16 53 30 58 30 5 0 12 7 15 15 8 22 73 110 80 110
4 0 15 -9 24 -21z m-253 6 c0 -2 -10 -9 -22 -15 -22 -11 -22 -10 -4 4 21 17
26 19 26 11z m561 -55 c5 0 9 -5 9 -11 0 -8 -5 -8 -15 1 -8 7 -14 24 -14 39
l2 26 4 -27 c2 -16 9 -28 14 -28z m-546 10 c-9 -14 8 -13 23 2 9 9 12 9 12 0
0 -6 -9 -16 -19 -22 -25 -13 -34 -13 -26 0 10 16 -4 12 -33 -9 -41 -29 -89
-37 -187 -31 -105 6 -86 15 51 26 54 4 108 14 130 24 46 21 58 24 49 10z
m-215 -20 c-8 -5 -28 -9 -45 -9 -30 2 -30 2 5 9 51 11 57 11 40 0z m-268 -55
c6 -13 14 -23 17 -21 3 2 16 -10 29 -25 l24 -29 -26 0 c-20 0 -26 5 -26 21 0
11 -5 17 -10 14 -6 -4 -8 -10 -5 -15 7 -12 -35 -40 -60 -40 -16 0 -17 2 -5 10
8 5 11 10 5 10 -18 0 -75 -40 -75 -52 0 -9 3 -8 10 2 8 13 10 13 10 -1 0 -19
-23 -31 -44 -23 -32 12 -44 90 -15 90 14 0 16 -6 12 -27 -3 -15 0 -30 6 -34 8
-5 10 1 6 18 -4 14 -2 28 5 32 8 5 7 11 -2 23 -11 13 -10 15 5 9 12 -4 17 -1
18 11 0 14 2 14 8 -3 5 -12 4 -23 -3 -27 -8 -6 -8 -8 1 -8 7 0 20 12 30 26 27
39 52 64 63 64 6 0 15 -11 22 -25z m-338 -20 c10 -22 13 -30 15 -45 0 -5 18
-10 39 -10 21 0 47 -7 58 -16 18 -15 18 -15 -3 -5 -30 15 -50 6 -109 -50 -43
-40 -61 -49 -113 -60 -34 -6 -73 -21 -88 -32 -24 -19 -25 -21 -7 -34 24 -17 6
-17 -28 1 -23 12 -28 13 -28 1 0 -8 -23 -20 -54 -29 -71 -21 -79 -20 -31 6 55
28 75 47 76 72 l1 21 6 -21 c6 -18 11 -20 31 -13 21 8 23 14 18 50 -5 35 8 85
30 118 2 2 11 -3 21 -12 21 -19 32 -13 32 18 0 16 12 26 48 41 58 25 74 25 86
-1z m153 9 c7 -21 -120 -63 -132 -44 -5 9 -2 10 12 6 16 -5 19 -2 19 16 -1 18
5 23 33 25 19 2 37 5 40 8 7 7 24 1 28 -11z m-467 2 c0 -10 -92 -66 -108 -66
-9 1 4 12 30 25 26 14 49 29 53 35 6 10 25 14 25 6z m1710 -6 c8 -5 11 -10 5
-10 -5 0 -17 5 -25 10 -8 5 -10 10 -5 10 6 0 17 -5 25 -10z m-1553 -47 c-3 -3
-11 -2 -17 2 -8 5 -7 11 2 22 12 15 13 14 16 -1 2 -10 1 -20 -1 -23z m1653 27
c-8 -5 -19 -10 -25 -10 -5 0 -3 5 5 10 8 5 20 10 25 10 6 0 3 -5 -5 -10z
m-1370 -21 c-7 -11 -14 -18 -17 -15 -3 3 0 12 7 21 18 21 23 19 10 -6z m512
10 c-23 -4 -47 -11 -52 -14 -6 -3 -10 -2 -10 4 0 12 25 19 70 19 34 0 34 0 -8
-9z m-962 -14 c0 -25 -88 -75 -132 -75 -46 0 -50 15 -5 24 17 4 52 20 76 36
50 34 61 37 61 15z m1888 2 c16 -19 0 -37 -30 -35 -21 2 -25 6 -18 19 5 9 6
19 3 23 -3 3 3 6 14 6 11 0 25 -6 31 -13z m-1858 -16 c0 -5 -7 -11 -15 -15
-15 -5 -20 5 -8 17 9 10 23 9 23 -2z m77 -21 c-11 -29 -12 -29 -20 -8 -5 14
-3 24 5 30 23 14 27 9 15 -22z m1101 21 c10 -6 3 -13 -25 -24 -48 -20 -22 -22
42 -2 27 8 51 13 53 11 2 -2 -6 -7 -17 -11 -12 -3 -21 -10 -21 -15 0 -5 -24
-8 -52 -6 -29 2 -87 5 -128 6 l-75 3 65 8 c139 17 154 20 139 30 -8 5 -9 9 -4
9 6 0 16 -4 23 -9z m297 -17 c201 -34 205 -35 205 -55 0 -23 -27 -24 -188 -5
-86 10 -121 19 -143 35 -16 12 -42 24 -59 27 -16 4 -30 10 -30 15 0 10 106 2
215 -17z m-1445 -2 c0 -5 -7 -17 -15 -28 -14 -19 -14 -19 -15 2 0 11 3 24 7
27 9 10 23 9 23 -1z m706 -4 c5 -8 2 -9 -9 -5 -9 3 -19 2 -22 -3 -4 -6 5 -10
19 -10 14 0 28 5 31 10 8 13 62 13 70 -1 4 -6 4 -13 0 -17 -4 -4 -10 -2 -12 4
-4 13 -55 6 -64 -8 -10 -16 -87 -22 -104 -8 -8 7 -33 10 -57 8 -24 -1 -44 2
-45 7 -2 6 11 10 27 11 16 0 33 3 36 7 4 4 16 7 27 7 13 0 17 -5 13 -15 -6
-16 3 -19 28 -9 9 3 13 10 10 15 -3 5 -10 7 -15 4 -5 -4 -9 -1 -9 4 0 15 67
14 76 -1z m547 -5 c-26 -10 -12 -23 25 -24 20 0 31 -3 24 -6 -7 -3 -34 -2 -60
2 -46 7 -46 7 -22 21 14 7 30 13 35 13 6 0 4 -3 -2 -6z m-858 -31 c-7 -8 -35
7 -35 18 0 6 7 6 20 -2 10 -7 17 -14 15 -16z m1452 -4 c-3 -8 -6 -5 -6 6 -1
11 2 17 5 13 3 -3 4 -12 1 -19z m-1502 0 c-3 -7 -18 -22 -35 -33 -21 -14 -30
-29 -32 -55 l-3 -35 -27 27 c-17 16 -28 22 -28 14 0 -14 -38 -29 -52 -20 -15
9 -8 24 11 24 19 0 123 66 129 82 2 4 12 8 23 8 10 0 16 -5 14 -12z m613 -5
c-21 -2 -55 -2 -75 0 -21 2 -4 4 37 4 41 0 58 -2 38 -4z m-918 -67 c0 -4 -13
3 -30 16 -16 12 -30 27 -30 34 0 7 14 -1 30 -16 17 -15 30 -31 30 -34z m510
60 c0 -2 -7 -6 -15 -10 -8 -3 -15 -1 -15 4 0 6 7 10 15 10 8 0 15 -2 15 -4z
m273 -7 l92 -1 93 -103 93 -104 112 -35 c62 -20 127 -47 145 -62 39 -31 115
-142 108 -158 -2 -6 -5 -3 -5 6 -1 15 -8 12 -44 -15 -23 -17 -54 -40 -67 -50
-14 -10 -6 -7 18 6 37 21 47 22 77 13 38 -12 44 -21 20 -30 -8 -3 -15 0 -15 6
0 7 -5 6 -15 -2 -8 -7 -15 -19 -15 -27 0 -11 -7 -13 -25 -9 -19 5 -25 2 -25
-10 0 -11 5 -14 16 -10 15 6 15 4 3 -10 -9 -11 -15 -12 -17 -5 -3 9 -8 9 -19
0 -12 -10 -16 -10 -24 2 -5 8 -9 11 -9 7 0 -18 -2 -24 -12 -35 -18 -22 -30 -2
-14 23 19 28 21 43 4 26 -15 -15 -42 -16 -32 -1 3 6 -8 3 -25 -5 -17 -9 -31
-19 -31 -22 0 -2 9 0 19 6 28 14 35 12 20 -6 -8 -10 -22 -14 -41 -10 -15 3
-30 1 -33 -4 -3 -6 1 -7 10 -4 11 5 14 2 9 -10 -3 -9 -15 -16 -26 -16 -10 0
-17 4 -14 9 4 5 -3 7 -14 4 -16 -4 -20 0 -21 23 0 16 -3 22 -6 14 -18 -50 -36
-79 -47 -73 -6 3 -8 3 -4 -2 4 -4 3 -14 -3 -22 -9 -9 -8 -13 0 -13 9 0 9 -6 0
-22 -12 -23 -12 -23 10 -4 28 25 27 9 -1 -21 -19 -20 -20 -23 -4 -17 16 6 17
4 7 -14 -12 -23 -31 -30 -31 -12 0 6 -4 10 -10 10 -5 0 -10 -7 -10 -15 0 -16
-12 -20 -23 -8 -4 3 1 15 10 25 16 18 16 18 -3 12 -10 -4 -30 -15 -44 -23 -13
-9 -21 -11 -17 -4 4 6 4 13 0 16 -5 2 -1 2 7 0 10 -2 8 2 -4 12 -16 12 -17 15
-4 15 9 0 18 -5 20 -11 3 -9 11 -8 28 1 15 8 20 15 12 18 -7 2 -10 13 -6 28 7
28 -1 29 -36 8 l-25 -15 25 5 c16 4 12 -1 -13 -12 -20 -9 -35 -22 -33 -28 4
-12 -54 -44 -79 -44 -8 0 -15 -7 -15 -15 0 -8 6 -15 13 -15 9 0 9 -2 -1 -9
-10 -6 -6 -10 14 -14 20 -4 33 0 45 14 17 20 76 45 85 36 11 -11 -37 -47 -61
-47 -14 0 -28 -7 -31 -15 -5 -12 -10 -13 -20 -4 -9 7 -18 7 -31 0 -10 -6 -12
-11 -5 -11 20 0 14 -17 -8 -23 -17 -4 -20 -2 -15 14 5 15 1 19 -17 19 -19 0
-20 -2 -8 -10 11 -8 7 -9 -15 -3 -16 4 -40 7 -52 8 -12 0 -20 2 -18 4 2 2 -3
11 -12 20 -16 15 -15 16 6 19 13 2 28 -2 35 -9 8 -9 6 -10 -9 -5 -20 6 -20 6
-1 -9 22 -17 41 -18 71 -5 l20 9 -20 1 c-19 1 -19 1 -2 14 28 22 -3 40 -55 32
-66 -10 -91 -11 -118 -3 -17 4 -14 2 7 -8 34 -16 59 -43 29 -32 -10 4 -30 10
-44 13 -53 11 -58 14 -42 24 12 7 11 10 -5 16 -11 4 -23 12 -27 18 -6 8 -11 6
-17 -4 -6 -8 -13 -11 -17 -8 -10 11 19 35 36 30 11 -3 12 -1 5 7 -6 6 -25 12
-43 14 -18 2 -38 9 -44 15 -19 19 10 14 77 -13 64 -26 79 -31 55 -15 -10 6 3
8 40 5 38 -3 46 -2 25 3 -16 5 -29 13 -27 20 1 7 -5 12 -13 12 -12 0 -14 8
-10 33 4 26 3 29 -6 14 -6 -11 -9 -30 -6 -43 3 -18 0 -24 -13 -24 -31 0 -112
32 -117 47 -5 11 -8 12 -14 2 -6 -10 -13 -9 -33 5 -15 9 -25 20 -22 24 2 4 -2
36 -8 72 -16 89 -2 128 76 207 58 58 61 64 50 88 -17 37 -15 41 8 13 25 -33
39 -69 42 -113 2 -38 5 -40 28 -25 13 8 11 17 -13 64 -16 30 -44 72 -63 94
-48 56 -45 81 5 46 17 -12 14 -5 -13 31 -36 46 -44 65 -28 65 10 0 112 -105
128 -130 5 -8 18 -20 29 -26 11 -7 19 -19 17 -28 -2 -9 3 -15 10 -14 7 2 13
-4 13 -12 0 -8 12 -31 26 -50 15 -19 31 -48 36 -65 13 -42 17 -125 5 -125 -9
0 0 -69 10 -73 38 -20 43 -27 44 -65 l1 -41 -56 -4 c-51 -3 -50 -3 18 -5 66
-2 72 0 65 16 -4 9 -9 35 -10 57 -7 100 -39 220 -78 292 -8 15 -29 55 -45 88
-17 33 -56 93 -86 133 -30 39 -52 72 -49 72 3 0 -2 7 -10 16 -9 8 -16 21 -16
29 0 17 48 48 65 41 16 -6 56 -82 75 -141 7 -22 16 -44 21 -50 12 -13 12 -10
-15 78 -14 42 -21 77 -18 77 4 0 -1 5 -10 11 -30 17 -21 36 18 37 20 1 39 4
42 7 3 3 12 3 20 0 7 -3 55 -5 105 -6z m242 -9 c-3 -5 -16 -10 -28 -9 -20 1
-20 2 3 9 14 4 26 8 28 9 2 1 0 -3 -3 -9z m622 4 c-3 -3 -12 -4 -19 -1 -8 3
-5 6 6 6 11 1 17 -2 13 -5z m-1332 -14 c3 -5 1 -10 -4 -10 -6 0 -11 5 -11 10
0 6 2 10 4 10 3 0 8 -4 11 -10z m145 1 c0 -6 -4 -13 -10 -16 -5 -3 -10 1 -10
9 0 9 5 16 10 16 6 0 10 -4 10 -9z m659 4 c-9 -8 -79 -35 -79 -30 0 7 53 34
69 35 8 0 12 -2 10 -5z m91 -8 c0 -7 -15 -18 -32 -25 -30 -10 -31 -10 -14 3
11 8 16 15 12 15 -4 0 -4 5 -1 10 9 14 35 12 35 -3z m560 3 c0 -5 -7 -10 -15
-10 -8 0 -15 5 -15 10 0 6 7 10 15 10 8 0 15 -4 15 -10z m-1380 -31 c6 -23 6
-23 18 -4 6 11 12 15 12 8 0 -6 -4 -15 -10 -18 -15 -9 -12 -52 6 -86 14 -27
14 -33 0 -54 -9 -13 -30 -25 -52 -30 -23 -4 -33 -9 -25 -14 21 -13 -14 -33
-56 -30 -21 1 -50 -4 -65 -11 -34 -16 -54 -8 -60 24 -6 31 -7 31 22 6 23 -20
23 -20 54 -1 17 11 58 27 91 36 82 23 91 34 70 75 -9 17 -19 29 -22 26 -3 -3
-1 -11 5 -19 18 -21 11 -55 -10 -49 -24 6 -34 21 -43 60 -7 33 2 41 24 20 11
-11 12 -10 6 1 -6 11 -4 13 9 8 10 -4 15 -3 11 3 -4 6 -8 26 -10 46 -4 40 16
43 25 3z m650 26 c0 -14 -41 -24 -62 -15 -23 10 -23 10 2 6 14 -3 32 -1 40 4
17 11 20 12 20 5z m254 -6 c-4 -7 -44 0 -44 7 0 2 11 3 24 2 14 -1 23 -5 20
-9z m414 -36 c-11 -14 -8 -14 14 1 25 16 28 16 34 3 3 -9 12 -13 20 -10 8 3
14 0 14 -6 0 -6 -4 -11 -9 -11 -5 0 -17 -3 -27 -7 -11 -4 -15 -3 -11 4 4 7 0
9 -11 6 -10 -2 -31 1 -47 7 l-29 11 29 24 c24 18 31 20 33 9 2 -8 -2 -22 -10
-31z m84 25 c-7 -7 -12 -8 -12 -2 0 6 3 14 7 17 3 4 9 5 12 2 2 -3 -1 -11 -7
-17z m-512 -28 c-44 -38 -74 -54 -51 -27 6 8 8 17 4 20 -12 13 19 37 42 31 13
-3 26 -1 29 5 4 6 10 11 14 11 4 0 -13 -18 -38 -40z m97 16 c-35 -15 -104 -82
-124 -119 -8 -16 -17 -27 -19 -24 -7 7 38 77 64 101 12 10 19 23 15 29 -3 6
-1 7 5 3 7 -4 22 0 34 8 12 9 29 16 38 15 8 0 3 -6 -13 -13z m453 -1 c-7 -8
-17 -12 -22 -9 -6 4 -5 10 3 15 22 14 33 10 19 -6z m-827 -3 c13 7 30 -3 77
-44 57 -50 73 -67 49 -52 -10 6 -8 -10 8 -52 2 -6 -3 -11 -11 -11 -8 0 -12 6
-9 14 3 7 -2 24 -11 37 -12 19 -12 26 -3 30 6 3 1 3 -13 0 -39 -10 -48 -23
-26 -40 11 -7 17 -16 14 -19 -5 -6 -98 77 -98 88 0 5 -12 19 -27 32 l-28 24
31 -8 c18 -5 38 -5 47 1z m-889 -27 c3 -10 -3 -17 -19 -21 -34 -9 -53 5 -30
23 24 17 41 17 49 -2z m996 5 c0 -5 -5 -10 -11 -10 -5 0 -7 5 -4 10 3 6 8 10
11 10 2 0 4 -4 4 -10z m-1020 -61 c0 -12 -48 11 -54 26 -3 9 3 9 25 -2 16 -8
29 -19 29 -24z m1541 15 c22 -25 22 -26 3 -16 -12 6 -24 18 -28 27 -8 21 -3
19 25 -11z m-1441 9 c1 -5 4 -27 9 -50 7 -34 5 -40 -6 -36 -19 8 -33 46 -26
72 5 20 22 30 23 14z m1005 -3 c-3 -5 -11 -10 -16 -10 -6 0 -7 5 -4 10 3 6 11
10 16 10 6 0 7 -4 4 -10z m25 -8 c0 -5 -7 -17 -15 -28 -14 -18 -14 -17 -4 9
12 27 19 34 19 19z m-1069 -48 c35 -37 54 -45 82 -35 17 7 29 6 37 -2 7 -7 10
-7 7 -2 -3 6 7 18 23 27 25 14 30 15 41 2 6 -8 10 -16 8 -17 -13 -10 -91 -27
-99 -22 -6 4 -9 1 -8 -5 2 -7 -5 -17 -14 -23 -14 -9 -23 -7 -45 9 -15 12 -30
30 -31 40 -2 10 -14 27 -25 36 -12 10 -17 18 -11 18 6 0 21 -12 35 -26z m943
10 c17 -16 21 -34 9 -34 -12 1 -45 50 -34 50 5 0 17 -7 25 -16z m127 -7 c-10
-9 -11 -8 -5 6 3 10 9 15 12 12 3 -3 0 -11 -7 -18z m76 -19 c-3 -8 -6 -5 -6 6
-1 11 2 17 5 13 3 -3 4 -12 1 -19z m-134 -18 c3 -11 1 -18 -4 -14 -5 3 -9 12
-9 20 0 20 7 17 13 -6z m-776 -46 c0 -9 -9 -19 -19 -22 -10 -2 -18 -8 -18 -13
0 -5 13 -3 30 6 37 19 46 19 26 0 -8 -8 -20 -15 -26 -15 -6 0 -8 -4 -5 -10 4
-6 -5 -10 -20 -10 -16 0 -24 4 -19 11 4 8 0 7 -15 -1 -12 -6 -29 -10 -38 -8
-14 3 -14 5 2 18 11 9 16 10 11 3 -11 -19 2 -16 26 7 12 11 30 20 40 20 11 0
15 5 12 15 -4 8 -2 15 3 15 5 0 10 -7 10 -16z m1285 -74 c15 -18 16 -25 6 -31
-21 -14 -31 -10 -18 6 7 9 8 15 2 15 -5 0 -12 -7 -15 -14 -3 -8 -22 -18 -41
-22 -20 -3 -36 -10 -36 -16 0 -5 6 -6 13 -2 6 4 9 3 4 -1 -10 -11 -47 -14 -47
-4 0 5 -8 6 -17 3 -16 -5 -16 -4 -3 6 12 9 9 11 -18 7 -30 -3 -31 -2 -17 12
14 14 18 14 45 -2 34 -20 38 -17 13 9 -17 16 -16 17 9 12 16 -3 25 -1 21 5 -3
5 -23 6 -44 3 -48 -8 -49 -2 -6 25 44 28 123 22 149 -11z m-1309 -37 c-7 -2
-19 -2 -25 0 -7 3 -2 5 12 5 14 0 19 -2 13 -5z m-43 -23 c0 -12 -8 -12 -35 0
-18 8 -17 9 8 9 15 1 27 -3 27 -9z m1365 0 c4 -7 -6 -9 -29 -7 -19 2 -33 1
-31 -4 3 -4 1 -10 -4 -13 -5 -4 -13 -1 -17 5 -3 6 0 15 7 20 19 12 66 11 74
-1z m-13 -62 c-2 -11 1 -18 9 -18 11 0 11 -2 1 -8 -9 -6 -7 -14 10 -32 17 -18
18 -22 5 -17 -9 3 -19 2 -22 -3 -4 -6 2 -10 11 -10 16 0 16 -1 -1 -20 -13 -15
-15 -20 -4 -20 7 0 -2 -11 -21 -24 -19 -13 -39 -22 -44 -19 -4 3 -2 9 5 14 11
7 11 9 -1 9 -10 0 -4 9 15 26 17 15 22 23 13 20 -10 -3 -18 -1 -18 4 0 6 -3 9
-7 8 -13 -4 -73 24 -73 33 0 5 5 9 10 9 6 0 10 -5 10 -11 0 -5 5 -7 11 -3 6 3
15 0 20 -7 4 -7 11 -10 16 -6 4 5 1 12 -7 18 -13 7 -13 10 -1 18 11 7 11 10 0
17 -7 4 -14 3 -17 -4 -2 -7 -10 -12 -19 -12 -12 0 -11 3 3 18 16 16 16 17 1
20 -36 7 -5 19 46 18 47 0 53 -3 49 -18z m-267 -27 c-3 -6 -11 -11 -17 -11 -6
0 -6 6 2 15 14 17 26 13 15 -4z m-1095 -35 c0 -2 3 -11 6 -20 3 -9 1 -16 -6
-16 -6 0 -8 5 -5 10 4 7 -10 9 -40 6 -38 -3 -44 -2 -34 10 10 12 79 21 79 10z
m-36 -43 c-20 -15 -34 -17 -34 -5 0 13 7 18 30 18 20 0 20 -1 4 -13z m1269
-10 c-13 -2 -33 -2 -45 0 -13 2 -3 4 22 4 25 0 35 -2 23 -4z m67 -7 c0 -11
-19 -15 -25 -6 -3 5 1 10 9 10 9 0 16 -2 16 -4z m-111 -17 c-15 -6 -35 -6 -50
-1 -20 8 -15 9 26 10 43 0 46 -1 24 -9z m-259 -14 c0 -3 -8 -17 -17 -32 -17
-25 -17 -26 6 -18 17 5 21 4 16 -5 -4 -6 -16 -10 -26 -7 -12 3 -25 -5 -40 -28
-15 -21 -31 -32 -46 -32 -24 0 -31 11 -13 22 15 9 12 25 -6 25 -8 0 -12 5 -9
10 5 8 11 8 20 0 9 -8 17 -4 29 15 9 14 25 25 37 25 11 0 22 7 25 15 6 14 24
21 24 10z m445 -11 c-16 -12 -17 -17 -7 -23 10 -6 8 -10 -9 -14 -13 -4 -25 -4
-27 -2 -9 9 9 36 30 45 33 13 36 11 13 -6z m-182 -11 c-13 -2 -33 -2 -45 0
-13 2 -3 4 22 4 25 0 35 -2 23 -4z m-130 -10 c-7 -2 -19 -2 -25 0 -7 3 -2 5
12 5 14 0 19 -2 13 -5z m60 -10 c-7 -2 -19 -2 -25 0 -7 3 -2 5 12 5 14 0 19
-2 13 -5z m-338 -13 c-3 -5 -13 -10 -21 -10 -8 0 -12 5 -9 10 3 6 13 10 21 10
8 0 12 -4 9 -10z m535 -5 c0 -3 -9 -14 -20 -25 -19 -19 -20 -19 -20 -2 0 10 3
22 7 25 7 8 33 9 33 2z m90 -31 c0 -8 -6 -11 -15 -8 -8 4 -15 15 -15 26 0 17
3 18 15 8 8 -7 15 -19 15 -26z m-392 19 c-10 -2 -28 -2 -40 0 -13 2 -5 4 17 4
22 1 32 -1 23 -4z m-958 -28 c25 -14 25 -14 3 -15 -28 0 -29 -7 -5 -33 16 -19
16 -19 -3 -16 -15 3 -20 12 -19 34 0 17 -4 33 -10 37 -20 14 8 8 34 -7z m680
5 c0 -5 -5 -10 -11 -10 -5 0 -7 5 -4 10 3 6 8 10 11 10 2 0 4 -4 4 -10z m48
-2 c-6 -18 -28 -21 -28 -4 0 9 7 16 16 16 9 0 14 -5 12 -12z m155 5 c-7 -2
-21 -2 -30 0 -10 3 -4 5 12 5 17 0 24 -2 18 -5z m397 -18 c-8 -9 -9 -15 -2
-15 6 0 14 5 17 10 4 6 11 7 18 3 7 -4 4 -9 -7 -13 -16 -5 -17 -8 -4 -21 14
-13 11 -18 -21 -38 l-36 -22 27 25 c28 26 19 41 -15 24 -15 -8 -16 -18 -11
-71 3 -34 10 -70 15 -79 15 -28 9 -45 -6 -18 -25 45 -39 130 -24 156 7 13 18
24 26 24 7 0 13 5 13 11 0 5 -4 8 -9 4 -5 -3 -13 0 -17 6 -4 7 -3 9 3 6 6 -4
16 0 23 8 7 8 15 15 17 15 3 0 0 -7 -7 -15z m-343 -12 c-8 -7 -119 -5 -126 3
-2 2 26 4 64 4 38 0 65 -3 62 -7z m-912 -13 c3 -5 2 -10 -4 -10 -5 0 -13 5
-16 10 -3 6 -2 10 4 10 5 0 13 -4 16 -10z m695 2 c0 -13 -12 -22 -22 -16 -10
6 -1 24 13 24 5 0 9 -4 9 -8z m625 -20 c-3 -3 -11 0 -18 7 -9 10 -8 11 6 5 10
-3 15 -9 12 -12z m115 -28 c0 -9 -37 15 -51 33 -10 12 -5 11 19 -6 17 -12 32
-24 32 -27z m-1415 16 c3 -5 -1 -10 -9 -10 -9 0 -16 5 -16 10 0 6 4 10 9 10 6
0 13 -4 16 -10z m42 4 c-3 -3 -12 -4 -19 -1 -8 3 -5 6 6 6 11 1 17 -2 13 -5z
m-192 -44 c-3 -5 -1 -10 4 -10 6 0 11 -5 11 -12 0 -9 -3 -9 -12 0 -7 7 -19 12
-27 12 -14 0 -14 -1 -1 -10 9 -6 10 -10 3 -10 -20 0 -24 18 -6 29 23 13 36 14
28 1z m87 -12 c-7 -7 -12 -8 -12 -2 0 14 12 26 19 19 2 -3 -1 -11 -7 -17z m6
-45 c-38 -70 -37 -68 -44 -61 -7 8 10 42 43 86 36 48 37 39 1 -25z m117 47 c3
-6 -1 -7 -9 -4 -18 7 -21 14 -7 14 6 0 13 -4 16 -10z m383 5 c-10 -10 -49 -14
-43 -4 4 5 16 9 27 9 12 0 19 -2 16 -5z m-123 -15 c-3 -5 -16 -10 -28 -9 -21
0 -21 1 -2 9 28 12 37 12 30 0z m932 -35 c11 -14 12 -45 2 -45 -8 0 -10 5 -9
25 0 3 -7 20 -15 38 -14 27 -14 29 -1 12 9 -11 19 -24 23 -30z m-1245 -18
c-18 -51 -36 -65 -22 -18 9 34 30 74 35 69 2 -2 -4 -25 -13 -51z m42 9 c-9
-15 -19 -25 -21 -22 -5 5 30 56 35 51 2 -2 -4 -15 -14 -29z m1386 30 c0 -3 -4
-8 -10 -11 -5 -3 -10 -1 -10 4 0 6 5 11 10 11 6 0 10 -2 10 -4z m-1603 -25 c0
-10 -7 -17 -13 -14 -7 3 -10 11 -7 19 8 20 22 17 20 -5z m819 -48 c-5 -6 -106
49 -106 58 0 4 25 -6 55 -23 30 -18 53 -33 51 -35z m43 38 c23 -15 -3 -20 -29
-5 -22 12 -23 13 -5 13 11 1 26 -3 34 -8z m-531 -49 c-7 -18 -16 -32 -21 -32
-5 0 -7 3 -5 8 34 69 47 82 26 24z m429 -14 c3 -7 -8 -2 -25 10 -17 13 -35 28
-39 34 -3 7 8 2 25 -10 17 -13 35 -28 39 -34z m-806 17 c18 4 36 2 44 -5 23
-19 18 -32 -7 -19 -23 12 -23 12 -4 -10 19 -21 53 -30 41 -11 -3 6 1 17 9 26
15 14 16 12 16 -20 0 -33 -2 -36 -27 -34 -16 1 -38 11 -50 22 -13 10 -23 15
-23 9 0 -6 7 -16 15 -23 21 -18 11 -24 -15 -10 -15 8 -20 8 -16 1 9 -14 -9
-14 -34 -1 -13 7 -21 7 -25 0 -3 -5 -13 -10 -21 -10 -9 0 -12 5 -8 12 4 7 3 8
-4 4 -6 -4 -9 -13 -5 -21 6 -18 2 -18 -31 -4 -23 11 -26 39 -4 39 5 0 6 -4 3
-10 -3 -5 -1 -10 4 -10 6 0 11 5 11 10 0 6 15 10 34 10 19 0 37 4 40 9 9 14
-16 20 -39 9 -16 -7 -16 -5 4 11 13 12 20 21 17 21 -4 0 -4 5 -1 10 4 7 13 6
26 -1 11 -6 34 -7 50 -4z m279 11 c0 -2 -7 -9 -15 -16 -13 -11 -14 -10 -9 4 5
14 24 23 24 12z m28 -16 c-7 -10 -14 -17 -17 -15 -4 4 18 35 25 35 2 0 -1 -9
-8 -20z m134 -12 c-8 -8 -9 -4 -5 13 4 13 8 18 11 10 2 -7 -1 -18 -6 -23z
m278 0 c0 -12 -6 -9 -26 13 -19 22 -19 22 4 8 12 -8 22 -17 22 -21z m-319 -15
c-10 -17 -10 -16 -11 3 0 23 13 41 18 25 2 -6 -1 -18 -7 -28z m481 8 c-1 -7 5
-15 15 -18 10 -2 28 -20 40 -39 l22 -34 -25 -17 c-34 -22 -144 -20 -184 4 -39
23 -37 41 3 34 5 -1 6 3 2 9 -3 5 -1 10 5 10 7 0 10 7 7 14 -4 10 -1 13 8 10
8 -3 29 6 47 20 34 27 65 30 60 7z m-667 -2 c4 -6 13 -8 21 -5 8 3 11 0 7 -9
-4 -12 -60 -35 -85 -35 -5 0 -8 14 -8 30 0 27 3 30 29 30 17 0 33 -5 36 -11z
m312 -11 c-3 -8 -6 -5 -6 6 -1 11 2 17 5 13 3 -3 4 -12 1 -19z m-396 -41 c-13
-13 -15 1 -4 30 7 17 8 17 11 -1 2 -10 -1 -23 -7 -29z m549 -9 c0 -14 -25 2
-44 29 l-19 26 31 -23 c18 -13 32 -27 32 -32z m-168 -8 c37 -18 72 -28 87 -26
14 2 26 5 26 6 0 1 18 4 40 5 38 4 39 3 20 -12 -12 -10 -14 -14 -4 -10 8 2 26
-1 39 -8 23 -12 23 -12 -14 -25 -26 -8 -40 -9 -50 -1 -7 6 -16 8 -19 5 -7 -8
-73 22 -82 36 -3 6 -16 10 -28 10 -32 0 -129 48 -100 49 13 1 51 -13 85 -29z
m123 1 c-6 -5 -25 10 -25 20 0 5 6 4 14 -3 8 -7 12 -15 11 -17z m-687 6 c8
-10 5 -13 -14 -15 -21 -2 -23 0 -12 13 16 18 14 17 26 2z m632 -7 c0 -5 -2
-10 -4 -10 -3 0 -8 5 -11 10 -3 6 -1 10 4 10 6 0 11 -4 11 -10z m150 -262 c0
-16 -4 -28 -9 -28 -5 0 -9 19 -9 42 -1 30 2 38 8 28 6 -8 10 -27 10 -42z m-15
-76 c-3 -3 -11 0 -18 7 -9 10 -8 11 6 5 10 -3 15 -9 12 -12z m-31 -7 c11 -8
28 -13 37 -10 14 5 16 1 12 -15 -3 -11 -12 -20 -20 -20 -8 0 -12 4 -9 9 4 5
-3 7 -14 4 -16 -4 -19 -2 -14 11 4 11 2 16 -6 14 -7 -2 -15 3 -17 10 -6 16 7
15 31 -3z"/>
<path d="M759 2687 c-19 -15 -19 -69 1 -75 13 -4 13 -3 2 11 -15 17 -8 57 10
57 7 0 6 -5 -2 -15 -12 -15 -6 -35 11 -35 6 0 8 13 5 30 -4 28 -3 30 22 24 21
-4 24 -3 12 5 -20 14 -41 13 -61 -2z"/>
<path d="M1875 2270 c-3 -5 -1 -10 4 -10 6 0 11 5 11 10 0 6 -2 10 -4 10 -3 0
-8 -4 -11 -10z"/>
<path d="M1079 2027 c7 -7 14 -8 21 -1 6 6 2 10 -12 11 -16 2 -18 -1 -9 -10z"/>
<path d="M1745 1810 c-16 -7 -17 -9 -3 -9 9 -1 20 4 23 9 7 11 7 11 -20 0z"/>
<path d="M1260 1800 c-8 -5 -10 -10 -5 -10 6 0 17 5 25 10 8 5 11 10 5 10 -5
0 -17 -5 -25 -10z"/>
<path d="M908 1834 c13 -9 27 -27 32 -40 5 -13 14 -24 19 -24 15 0 -18 59 -39
70 -29 16 -37 12 -12 -6z"/>
<path d="M842 1818 c-14 -14 -16 -32 -3 -24 4 3 18 -5 30 -18 19 -20 21 -28
12 -45 -15 -27 -57 -28 -73 -1 -7 11 -16 20 -21 20 -4 0 0 -11 9 -26 14 -21
23 -25 58 -22 23 2 39 6 36 9 -3 3 3 13 13 23 21 22 22 40 1 60 -27 28 -50 36
-62 24z"/>
<path d="M850 1760 c0 -5 5 -10 11 -10 5 0 7 5 4 10 -3 6 -8 10 -11 10 -2 0
-4 -4 -4 -10z"/>
<path d="M1740 1430 c-8 -5 -11 -12 -7 -16 4 -4 13 -2 19 4 15 15 7 24 -12 12z"/>
<path d="M1791 1426 c-13 -7 -19 -16 -14 -19 11 -7 51 18 43 26 -3 3 -16 0
-29 -7z"/>
<path d="M1556 1424 c7 -3 10 -14 7 -24 -4 -15 0 -20 13 -20 13 0 15 3 7 11
-6 6 -9 18 -6 25 3 9 -2 14 -13 13 -11 0 -14 -3 -8 -5z"/>
<path d="M1290 1365 c0 -3 9 -23 20 -45 11 -22 20 -49 20 -61 0 -22 0 -22 -21
-3 l-21 19 15 -35 c9 -19 18 -43 21 -52 3 -10 14 -18 26 -18 18 0 19 5 15 51
-3 29 -17 70 -31 95 -24 41 -44 63 -44 49z"/>
<path d="M1614 1352 c3 -6 2 -13 -4 -17 -6 -4 -6 -12 1 -24 9 -13 7 -25 -7
-50 -69 -122 -83 -161 -44 -126 11 10 18 20 15 23 -6 6 53 92 64 92 10 0 81
66 81 75 0 5 -8 1 -17 -7 -10 -8 -26 -18 -36 -21 -15 -6 -16 -4 -6 14 8 15 8
19 0 15 -6 -4 -11 -3 -11 3 0 6 -10 15 -21 22 -13 7 -19 7 -15 1z"/>
<path d="M2085 1190 c-11 -5 -15 -9 -8 -9 7 -1 10 -8 6 -18 -5 -15 -3 -16 7
-6 11 10 25 46 17 42 -1 0 -11 -4 -22 -9z"/>
<path d="M1119 1161 c6 -10 8 -20 6 -23 -3 -3 1 -5 8 -5 11 0 11 6 3 24 -6 12
-15 23 -19 23 -4 0 -3 -8 2 -19z"/>
<path d="M1395 1160 c3 -5 8 -10 11 -10 2 0 4 5 4 10 0 6 -5 10 -11 10 -5 0
-7 -4 -4 -10z"/>
<path d="M1984 1154 c-18 -14 -18 -15 4 -4 12 6 22 13 22 15 0 8 -5 6 -26 -11z"/>
<path d="M1128 1085 c2 -19 6 -35 8 -35 2 0 4 16 4 35 0 19 -4 35 -8 35 -4 0
-6 -16 -4 -35z"/>
<path d="M1527 1103 c-4 -3 -7 -11 -7 -17 0 -6 5 -5 12 2 6 6 9 14 7 17 -3 3
-9 2 -12 -2z"/>
<path d="M1598 973 c7 -3 16 -2 19 1 4 3 -2 6 -13 5 -11 0 -14 -3 -6 -6z"/>
<path d="M1533 963 c9 -2 25 -2 35 0 9 3 1 5 -18 5 -19 0 -27 -2 -17 -5z"/>
<path d="M1520 940 c-18 -12 -2 -12 25 0 13 6 15 9 5 9 -8 0 -22 -4 -30 -9z"/>
<path d="M1230 930 c0 -6 7 -10 15 -10 8 0 15 2 15 4 0 2 -7 6 -15 10 -8 3
-15 1 -15 -4z"/>
<path d="M1316 928 c3 -4 13 -8 23 -8 9 0 23 -6 30 -12 10 -11 14 -10 22 5 10
18 69 25 69 8 0 -15 32 -23 44 -11 8 8 6 9 -6 5 -11 -5 -20 -2 -24 8 -4 12
-22 15 -84 14 -43 -1 -76 -5 -74 -9z"/>
<path d="M1296 915 c10 -8 26 -14 34 -14 9 0 4 6 -10 14 -33 19 -49 19 -24 0z"/>
<path d="M1979 1643 c-13 -16 -12 -17 4 -4 16 13 21 21 13 21 -2 0 -10 -8 -17
-17z"/>
<path d="M1729 1626 c7 -8 8 -16 4 -18 -4 -3 -2 -3 6 -1 8 2 11 -2 8 -12 -4
-8 -1 -17 5 -21 6 -4 8 -3 4 4 -3 6 -2 13 3 17 11 6 -17 45 -32 45 -5 0 -4 -6
2 -14z"/>
<path d="M1779 1613 c12 -18 27 -33 34 -33 6 0 5 5 -4 13 -8 6 -23 21 -33 32
-14 15 -13 11 3 -12z"/>
<path d="M2330 1365 c7 -8 17 -15 22 -15 6 0 5 7 -2 15 -7 8 -17 15 -22 15 -6
0 -5 -7 2 -15z"/>
<path d="M2360 1260 c-9 -6 -10 -10 -3 -10 6 0 15 5 18 10 8 12 4 12 -15 0z"/>
<path d="M2371 1228 c-17 -27 -9 -32 12 -8 9 11 13 21 9 24 -5 3 -14 -4 -21
-16z"/>
<path d="M2370 1185 c-7 -8 -9 -15 -6 -15 4 0 14 7 22 15 9 8 11 15 6 15 -5 0
-15 -7 -22 -15z"/>
<path d="M1880 1015 c-7 -9 -10 -18 -7 -21 3 -3 10 4 17 15 13 25 8 27 -10 6z"/>
<path d="M863 774 c0 -8 10 -14 25 -14 28 0 27 2 -4 18 -16 9 -21 8 -21 -4z"/>
<path d="M1460 2820 c0 -5 5 -10 11 -10 5 0 7 5 4 10 -3 6 -8 10 -11 10 -2 0
-4 -4 -4 -10z"/>
<path d="M1940 2809 c0 -5 5 -7 10 -4 6 3 10 8 10 11 0 2 -4 4 -10 4 -5 0 -10
-5 -10 -11z"/>
<path d="M1510 2756 c0 -2 7 -7 16 -10 8 -3 12 -2 9 4 -6 10 -25 14 -25 6z"/>
<path d="M1546 2714 c-10 -25 4 -37 20 -17 17 23 17 33 0 33 -8 0 -17 -7 -20
-16z"/>
<path d="M1456 2699 c21 -23 23 -23 20 -2 -2 9 -11 17 -20 19 -17 2 -17 2 0
-17z"/>
<path d="M1980 2677 c0 -2 15 -14 33 -27 l32 -23 -24 26 c-21 23 -41 35 -41
24z"/>
<path d="M730 1956 c0 -2 7 -7 16 -10 8 -3 12 -2 9 4 -6 10 -25 14 -25 6z"/>
<path d="M2429 1918 c0 -2 -2 -11 -4 -21 -3 -15 -1 -16 11 -6 7 6 11 15 8 20
-5 9 -13 12 -15 7z"/>
<path d="M940 1103 c-13 -15 -12 -16 4 -10 10 4 20 7 22 7 2 0 4 5 4 10 0 15
-13 12 -30 -7z"/>
<path d="M932 1072 c-7 -5 -10 -19 -8 -33 3 -13 5 -27 5 -31 1 -5 4 -8 9 -8
11 0 8 50 -3 50 -5 0 -1 7 9 15 21 16 11 21 -12 7z"/>
<path d="M966 1035 c4 -8 11 -15 16 -15 6 0 5 6 -2 15 -7 8 -14 15 -16 15 -2
0 -1 -7 2 -15z"/>
<path d="M925 970 c3 -5 11 -10 16 -10 6 0 7 5 4 10 -3 6 -11 10 -16 10 -6 0
-7 -4 -4 -10z"/>
<path d="M2473 873 c9 -11 14 -23 10 -27 -4 -4 0 -4 10 0 22 8 22 9 -10 29
-28 18 -28 18 -10 -2z"/>
<path d="M2191 750 c-7 -23 -10 -44 -8 -47 7 -6 29 65 25 79 -2 6 -10 -8 -17
-32z"/>
<path d="M2475 690 c-11 -5 -18 -9 -15 -10 26 -8 41 -6 51 6 13 16 -3 18 -36
4z"/>
<path d="M2180 685 c0 -5 5 -17 10 -25 5 -8 10 -10 10 -5 0 6 -5 17 -10 25 -5
8 -10 11 -10 5z"/>
<path d="M2056 621 c9 -17 17 -31 19 -31 8 0 -9 40 -21 51 -10 8 -10 3 2 -20z"/>
<path d="M2302 620 c0 -19 2 -27 5 -17 2 9 2 25 0 35 -3 9 -5 1 -5 -18z"/>
<path d="M899 623 c-13 -16 -12 -17 4 -4 9 7 17 15 17 17 0 8 -8 3 -21 -13z"/>
<path d="M1050 620 c-9 -6 -10 -10 -3 -10 6 0 15 5 18 10 8 12 4 12 -15 0z"/>
<path d="M1093 613 c9 -2 25 -2 35 0 9 3 1 5 -18 5 -19 0 -27 -2 -17 -5z"/>
<path d="M1158 603 c7 -3 16 -2 19 1 4 3 -2 6 -13 5 -11 0 -14 -3 -6 -6z"/>
<path d="M1228 603 c7 -3 16 -2 19 1 4 3 -2 6 -13 5 -11 0 -14 -3 -6 -6z"/>
<path d="M1290 600 c-11 -8 -7 -9 15 -4 37 8 45 14 19 14 -10 0 -26 -5 -34
-10z"/>
<path d="M989 565 c-11 -19 -29 -37 -40 -40 -10 -4 -19 -14 -19 -23 1 -16 2
-15 11 1 5 9 15 17 22 17 7 0 22 18 34 40 26 49 20 53 -8 5z"/>
<path d="M1845 580 c3 -5 12 -7 20 -3 21 7 19 13 -6 13 -11 0 -18 -4 -14 -10z"/>
<path d="M2050 556 c0 -28 -46 -163 -66 -194 -9 -14 -22 -21 -30 -18 -22 9
-64 -62 -64 -109 0 -40 0 -40 41 -42 23 -2 47 -7 54 -13 12 -10 33 9 67 62 10
14 29 38 43 54 25 27 37 60 13 36 -7 -7 -16 -12 -21 -12 -12 0 85 89 98 90 6
0 21 -16 34 -35 13 -19 28 -35 33 -35 5 0 6 -6 1 -12 -14 -23 -13 -49 2 -71
17 -24 20 -16 5 13 -17 31 5 31 39 0 37 -35 46 -38 32 -11 -6 10 -7 22 -3 26
4 5 2 5 -4 2 -15 -9 -41 13 -49 43 -7 22 -6 23 9 11 9 -8 16 -9 16 -3 0 6 -6
15 -13 19 -7 4 -28 30 -46 56 -18 27 -39 51 -47 54 -7 2 -16 12 -19 21 -2 10
-15 23 -27 31 -22 13 -22 12 2 -14 l25 -29 -31 22 c-17 12 -45 35 -63 51 -30
28 -31 28 -31 7z m191 -162 c22 -36 25 -58 4 -30 -8 11 -25 31 -37 45 -51 59
-54 66 -20 41 18 -14 42 -39 53 -56z"/>
<path d="M831 565 c1 -19 18 -51 18 -35 0 8 -4 22 -9 30 -5 8 -9 11 -9 5z"/>
<path d="M1039 523 l-24 -28 28 24 c25 23 32 31 24 31 -2 0 -14 -12 -28 -27z"/>
<path d="M875 480 c-4 -6 -5 -12 -4 -13 2 -1 14 -10 26 -21 21 -17 21 -17 16
3 -7 28 -29 46 -38 31z"/>
<path d="M2280 462 c12 -42 29 -72 42 -72 6 0 5 7 -5 18 -8 9 -19 29 -22 45
-4 15 -11 29 -15 32 -5 3 -5 -8 0 -23z"/>
<path d="M940 391 c0 -6 4 -13 10 -16 6 -3 7 1 4 9 -7 18 -14 21 -14 7z"/>
<path d="M2423 296 c1 -16 9 -32 17 -34 12 -4 13 -2 4 9 -7 8 -14 23 -17 34
-4 13 -5 9 -4 -9z"/>
<path d="M1001 290 c0 -14 28 -72 29 -59 0 4 -7 22 -15 40 -8 19 -14 27 -14
19z"/>
<path d="M1335 287 c-20 -25 -24 -84 -5 -72 6 3 10 2 10 -3 0 -4 16 -16 35
-25 26 -13 35 -23 35 -42 0 -17 -6 -25 -17 -26 -15 0 -15 -2 2 -9 32 -14 35
-12 35 19 0 21 -10 38 -35 60 -20 17 -31 31 -25 31 5 0 10 5 10 11 0 5 -4 7
-10 4 -5 -3 -10 -2 -10 4 0 6 -8 7 -17 4 -17 -7 -17 -6 -1 10 9 10 15 24 12
32 -7 18 -6 18 -19 2z"/>
<path d="M1240 280 l-45 -7 42 -1 c23 -1 45 3 48 8 3 6 5 9 3 8 -2 0 -23 -4
-48 -8z"/>
<path d="M2360 280 c0 -5 5 -10 11 -10 5 0 7 5 4 10 -3 6 -8 10 -11 10 -2 0
-4 -4 -4 -10z"/>
<path d="M1285 210 c-16 -7 -16 -9 -4 -9 9 -1 17 -7 16 -13 -1 -33 4 -49 13
-43 8 5 8 11 1 19 -6 7 -9 22 -6 34 2 12 3 22 2 21 -1 0 -11 -4 -22 -9z"/>
<path d="M2325 183 c11 -10 28 -27 38 -38 14 -17 16 -17 11 -2 -14 39 14 13
47 -43 18 -33 37 -60 41 -60 4 0 -6 23 -24 51 -17 28 -32 61 -33 72 -1 12 -3
25 -4 30 0 4 -12 1 -25 -8 -21 -14 -25 -14 -36 0 -7 8 -17 15 -23 15 -6 0 -2
-8 8 -17z"/>
<path d="M2471 180 c0 -8 6 -26 15 -40 l15 -25 -7 25 c-3 14 -10 32 -15 40 -7
13 -8 13 -8 0z"/>
<path d="M1208 173 c6 -2 18 -2 25 0 6 3 1 5 -13 5 -14 0 -19 -2 -12 -5z"/>
<path d="M1094 133 c4 -8 2 -13 -6 -14 -7 0 5 -7 26 -15 35 -13 42 -13 53 1 7
8 8 10 1 5 -16 -14 -31 -13 -22 1 4 7 1 10 -7 7 -8 -3 -23 2 -33 11 -11 9 -16
10 -12 4z"/>
<path d="M1335 90 c-3 -5 -1 -10 4 -10 6 0 11 5 11 10 0 6 -2 10 -4 10 -3 0
-8 -4 -11 -10z"/>
<path d="M2400 70 c12 -16 24 -30 26 -30 3 0 -4 14 -16 30 -12 17 -24 30 -26
30 -3 0 4 -13 16 -30z"/>
</g>
</svg>
